<svg width="1154" height="1154" viewBox="0 0 1154 1154" fill="none" xmlns="http://www.w3.org/2000/svg">
<rect width="1154" height="1154" rx="200" fill="#0866FC"/>
<path d="M352.389 358.707C340.768 358.707 328.805 357.454 316.5 354.947C304.423 352.213 293.258 348.225 283.004 342.984L299.752 289.664C304.309 291.715 308.98 293.538 313.766 295.133C318.551 296.5 323.108 297.184 327.438 297.184C335.413 297.184 341.565 294.905 345.895 290.348C350.224 285.79 352.389 279.866 352.389 272.574C352.389 265.51 349.882 259.928 344.869 255.826C339.856 251.497 332.906 249.332 324.02 249.332H258.053V153.287H346.236V194.303H357.516C384.632 194.303 406.051 201.253 421.773 215.152C437.496 229.052 445.357 248.648 445.357 273.941C445.357 300.829 437.268 321.679 421.09 336.49C405.139 351.301 382.239 358.707 352.389 358.707ZM379.049 825.26C346.692 825.26 322.311 817.512 305.904 802.018C289.726 786.523 281.637 765.331 281.637 738.443V500.211C281.637 466.031 290.523 440.396 308.297 423.307C326.07 405.989 350.794 397.33 382.467 397.33C392.721 397.33 402.177 397.672 410.836 398.355C419.495 399.039 428.04 400.064 436.471 401.432V487.223C432.141 486.311 428.04 485.628 424.166 485.172C420.52 484.716 416.305 484.488 411.52 484.488C391.012 484.488 380.758 495.198 380.758 516.617V723.062C380.758 732.405 383.15 739.241 387.936 743.57C392.949 747.672 400.24 749.723 409.811 749.723C413.001 749.723 416.419 749.495 420.064 749.039C423.71 748.583 427.698 747.786 432.027 746.646V816.373C424.28 819.563 415.165 821.842 404.684 823.209C394.43 824.576 385.885 825.26 379.049 825.26ZM698.971 826.627C663.88 826.627 633.688 821.158 608.395 810.221C583.102 799.055 563.733 783.333 550.289 763.053C536.845 742.773 530.123 718.847 530.123 691.275V568.912L493.893 550.113V500.553C493.893 479.589 496.969 461.588 503.121 446.549C509.501 431.51 519.983 420.003 534.566 412.027C549.15 404.052 568.974 400.064 594.039 400.064H762.887C766.305 400.064 768.811 399.267 770.406 397.672C772.001 396.077 772.799 393.684 772.799 390.494V359.391H869.869V409.293C869.869 434.814 862.805 454.182 848.678 467.398C834.778 480.615 814.726 487.223 788.521 487.223H599.508C589.254 487.223 581.62 489.387 576.607 493.717C571.822 498.046 569.43 504.768 569.43 513.883V543.277L555.416 516.617L604.635 537.125C613.066 540.543 619.218 544.303 623.092 548.404C627.193 552.506 629.244 559.228 629.244 568.57V685.465C629.244 705.061 635.396 720.784 647.701 732.633C660.006 744.254 677.096 750.064 698.971 750.064C720.618 750.064 737.594 744.14 749.898 732.291C762.203 720.442 768.355 704.833 768.355 685.465V621.891C768.355 613.688 765.849 607.763 760.836 604.117C756.051 600.471 748.873 598.648 739.303 598.648C736.113 598.648 732.581 598.876 728.707 599.332C724.833 599.56 720.846 600.243 716.744 601.383V533.365C724.492 530.175 733.492 527.896 743.746 526.529C754 525.162 762.773 524.479 770.064 524.479C802.421 524.479 826.689 531.884 842.867 546.695C859.273 561.279 867.477 581.445 867.477 607.193V691.275C867.477 718.847 860.641 742.773 846.969 763.053C833.525 783.333 814.156 799.055 788.863 810.221C763.798 821.158 733.834 826.627 698.971 826.627ZM671.285 1017.35C628.219 1017.35 594.837 1008.69 571.139 991.373C547.669 974.055 535.934 951.269 535.934 923.014C535.934 899.088 543.567 881.087 558.834 869.01C574.101 857.161 594.723 851.236 620.699 851.236C632.548 851.236 643.486 852.376 653.512 854.654C663.538 857.161 671.969 860.237 678.805 863.883L664.449 909.342C661.715 907.747 659.094 906.493 656.588 905.582C654.081 904.898 651.005 904.557 647.359 904.557C641.891 904.557 637.333 906.266 633.688 909.684C630.27 913.102 628.561 917.887 628.561 924.039C628.561 934.521 632.89 942.838 641.549 948.99C650.208 955.37 662.285 958.561 677.779 958.561C693.73 958.561 707.402 954.915 718.795 947.623C730.188 940.331 739.189 929.28 745.797 914.469C752.633 899.885 756.734 881.656 758.102 859.781L758.443 855.338H855.172L854.488 860.123C852.21 893.391 844.007 921.76 829.879 945.23C815.979 968.701 795.927 986.588 769.723 998.893C743.518 1011.2 710.706 1017.35 671.285 1017.35Z" fill="white"/>
</svg>
