<svg width="492" height="492" viewBox="0 0 492 492" fill="none" xmlns="http://www.w3.org/2000/svg">
<rect width="492" height="492" rx="100" fill="#0866FC"/>
<path d="M139.606 196.6H113.806V295.2H139.606C166.606 295.2 188.406 273 188.406 246C188.406 218.8 166.606 196.6 139.606 196.6ZM103.606 175.8H139.606C178.006 175.8 209.406 207 209.406 246C209.406 285 178.006 316 139.606 316H103.606C97.8063 316 93.2063 311.6 93.2063 305.8V186.2C93.2063 180.4 97.8063 175.8 103.606 175.8ZM256.553 316.2C227.753 316.2 204.553 292.8 204.553 263.8C204.553 235 227.753 211.8 256.553 211.8C285.353 211.8 308.553 235 308.553 263.8V306.6C308.553 311.6 304.153 316.2 298.753 316.2C293.753 316.2 289.153 311.6 289.153 306.6V304.4C280.353 311.8 268.953 316.2 256.553 316.2ZM223.353 263.8C223.353 282.2 238.153 297 256.553 297C274.553 297 289.353 282.2 289.353 263.8C289.353 245.6 274.553 230.8 256.553 230.8C238.153 230.8 223.353 245.6 223.353 263.8ZM327.875 331.4C333.475 340.6 344.075 346.6 355.675 346.6C367.475 346.6 377.675 340.6 383.675 331.4C385.675 328.4 388.675 326.8 391.875 326.8C393.475 326.8 394.875 327.2 396.475 328.2C401.275 331.4 402.475 337 399.675 341.6C390.475 356.2 374.275 365.8 355.675 365.8C336.875 365.8 321.075 356.2 311.675 341.6C308.675 337 310.275 331.4 314.675 328.2C316.275 327.2 317.875 326.8 319.475 326.8C322.675 326.8 325.675 328.4 327.875 331.4ZM309.475 269.6V221.2C309.475 216 313.475 211.8 318.875 211.8C324.075 211.8 328.475 216 328.475 221.2V269.6C328.475 284.6 340.875 296.8 355.675 296.8C370.875 296.8 382.875 284.6 382.875 269.6V221.2C382.875 216 387.075 211.8 392.475 211.8C397.675 211.8 401.875 216 401.875 221.2V269.6C401.875 295.2 381.075 316.2 355.675 316.2C330.075 316.2 309.475 295.2 309.475 269.6Z" fill="white"/>
</svg>
