<svg width="492" height="492" viewBox="0 0 492 492" fill="none" xmlns="http://www.w3.org/2000/svg">
<rect width="492" height="492" rx="100" fill="#0866FC"/>
<path d="M113.008 184.75H80.7578V308H113.008C146.758 308 174.008 280.25 174.008 246.5C174.008 212.5 146.758 184.75 113.008 184.75ZM68.0078 158.75H113.008C161.008 158.75 200.258 197.75 200.258 246.5C200.258 295.25 161.008 334 113.008 334H68.0078C60.7578 334 55.0078 328.5 55.0078 321.25V171.75C55.0078 164.5 60.7578 158.75 68.0078 158.75ZM259.191 334.25C223.191 334.25 194.191 305 194.191 268.75C194.191 232.75 223.191 203.75 259.191 203.75C295.191 203.75 324.191 232.75 324.191 268.75V322.25C324.191 328.5 318.691 334.25 311.941 334.25C305.691 334.25 299.941 328.5 299.941 322.25V319.5C288.941 328.75 274.691 334.25 259.191 334.25ZM217.691 268.75C217.691 291.75 236.191 310.25 259.191 310.25C281.691 310.25 300.191 291.75 300.191 268.75C300.191 246 281.691 227.5 259.191 227.5C236.191 227.5 217.691 246 217.691 268.75ZM348.344 353.25C355.344 364.75 368.594 372.25 383.094 372.25C397.844 372.25 410.594 364.75 418.094 353.25C420.594 349.5 424.344 347.5 428.344 347.5C430.344 347.5 432.094 348 434.094 349.25C440.094 353.25 441.594 360.25 438.094 366C426.594 384.25 406.344 396.25 383.094 396.25C359.594 396.25 339.844 384.25 328.094 366C324.344 360.25 326.344 353.25 331.844 349.25C333.844 348 335.844 347.5 337.844 347.5C341.844 347.5 345.594 349.5 348.344 353.25ZM325.344 276V215.5C325.344 209 330.344 203.75 337.094 203.75C343.594 203.75 349.094 209 349.094 215.5V276C349.094 294.75 364.594 310 383.094 310C402.094 310 417.094 294.75 417.094 276V215.5C417.094 209 422.344 203.75 429.094 203.75C435.594 203.75 440.844 209 440.844 215.5V276C440.844 308 414.844 334.25 383.094 334.25C351.094 334.25 325.344 308 325.344 276Z" fill="white"/>
</svg>
